<?xml version="1.0" encoding="utf-8"?>
<!-- Generator: Adobe Illustrator 22.1.0, SVG Export Plug-In . SVG Version: 6.00 Build 0)  -->
<svg version="1.1" id="Layer_1" xmlns="http://www.w3.org/2000/svg" xmlns:xlink="http://www.w3.org/1999/xlink" x="0px" y="0px"
	 viewBox="0 0 500 500" style="enable-background:new 0 0 500 500;" xml:space="preserve">
<style type="text/css">
	.st0{fill:#4B77A9;}
	.st1{fill:#FFFFFF;}
	.st2{fill:#004066;}
</style>
<g>
	<g>
		<path class="st0" d="M31,6h438c13.8,0,25,11.2,25,25v438c0,13.8-11.2,25-25,25H31c-13.8,0-25-11.2-25-25V31C6,17.2,17.2,6,31,6z"
			/>
		<path class="st1" d="M469,498H31c-16,0-29-13-29-29V31C2,15,15,2,31,2h438c16,0,29,13,29,29v438C498,485,485,498,469,498z M31,10
			c-11.6,0-21,9.4-21,21v438c0,11.6,9.4,21,21,21h438c11.6,0,21-9.4,21-21V31c0-11.6-9.4-21-21-21H31z"/>
	</g>
	<g id="_4">
		<path class="st1" d="M335.3,428.7v-79.8h48.1v-62.6h-48.1V72.5h-63.8l-155.2,210v66.4h150.1v79.8L335.3,428.7L335.3,428.7z
			 M176.9,286.2l89.4-122v122H176.9L176.9,286.2z"/>
	</g>
	<g id="it_s">
		<path class="st2" d="M138.1,92.7V72.5h-21.9v20.3H138.1z M138.1,186.7v-82.7h-21.9v82.7H138.1z M183.5,103.9V74.7l-22-0.2v29.4
			h-10v17.4h10v36.1c0,7.7,0.2,12.9,0.7,15.4c0.4,3,1.4,6,3.1,8.5c1.8,2.3,4.2,4.1,7,5.1c3.4,1.4,7,2,10.7,2
			c5.9,0.1,11.8-1,17.3-3.3l-1.9-17c-3.8,1.4-6.8,2.1-8.8,2.1c-1.3,0-2.6-0.3-3.7-1.1c-1-0.7-1.7-1.6-1.9-2.8
			c-0.3-1.1-0.4-5-0.4-11.8v-33.3h15v-17.4C198.5,103.9,183.5,103.9,183.5,103.9z M213.1,94.7h10.6c-0.1,4.4-1.1,7.9-3,10.4
			s-5,4.5-9.4,6l4.3,9c4.3-1.4,8.2-3.8,11.6-6.9c2.9-2.7,5-6.1,6.2-9.9c1.1-3.7,1.6-8.7,1.6-15V72.8h-21.9L213.1,94.7L213.1,94.7z
			 M257.2,181.7c6.6,4.6,15.5,6.9,26.8,6.9c12.4,0,21.8-2.7,28.1-8.2s9.5-12,9.5-19.5c0-7-2.3-12.4-6.9-16.3
			c-4.6-3.8-12.8-7.1-24.4-9.7s-18.5-4.7-20.4-6.2c-1.3-0.9-2.2-2.4-2.2-4c0-1.8,0.9-3.5,2.5-4.4c2.5-1.6,6.6-2.4,12.4-2.4
			c4.6,0,8.1,0.9,10.6,2.6c2.5,1.8,4.3,4.4,5,7.4l20.6-3.8c-2.1-7.2-5.9-12.7-11.4-16.4s-13.9-5.5-25.2-5.5
			c-11.9,0-20.7,2.4-26.3,7.3c-5.4,4.4-8.6,11.1-8.5,18.1c-0.2,7.5,3.5,14.6,9.8,18.6c4.7,3.2,15.9,6.8,33.6,10.7
			c3.8,0.9,6.2,1.8,7.3,2.9c1,1.1,1.6,2.6,1.6,4.1c0.1,2.3-1,4.5-2.9,5.8c-2.9,2.1-7.1,3.1-12.8,3.1c-5.1,0-9.1-1.1-12-3.3
			c-3-2.4-5-5.9-5.7-9.7l-22,3.3C246.2,170.6,250.8,177.3,257.2,181.7L257.2,181.7z"/>
	</g>
</g>
</svg>
