<svg xmlns="http://www.w3.org/2000/svg" width="291.75" height="67.68" viewBox="0 0 97.25 22.56">
  <defs>
    <style>
      .cls-1 {
        fill: #004066;
        fill-rule: evenodd;
      }
    </style>
  </defs>
  <path id="its4_apps" data-name="its4 apps" class="cls-1" d="M1050.84,1382.77a2.075,2.075,0,1,0,0-4.15A2.075,2.075,0,1,0,1050.84,1382.77Zm-1.79,13.78h3.59V1384.3h-3.59v12.25Zm7.39-4.67c0,3.5,1.56,4.9,4.79,4.9a7.94,7.94,0,0,0,1.88-.21v-3.2a6.37,6.37,0,0,1-1.19.11c-1.31,0-1.86-.55-1.86-1.67v-4.65h2.89v-2.86h-2.89v-3.16h-3.62v3.16h-1.67v2.86h1.67v4.72Zm8.79,0.57c0.09,3.23,2.29,4.33,5.77,4.33,3.64,0,5.22-1.56,5.22-3.87,0-4.81-7-3.25-7-5.29,0-.43.32-1.01,1.44-1.01a1.659,1.659,0,0,1,1.9,1.63h3.43c-0.09-2.63-1.92-4.17-5.33-4.17-3.5,0-5.08,1.67-5.08,3.92,0,4.71,7,3.11,7,5.2,0,0.66-.48,1.07-1.72,1.07-1.12,0-2.15-.43-2.19-1.81h-3.44Zm13.16,1.15h6.55v2.95h3.73v-2.95h1.93v-3h-1.93v-10.99h-4.14l-6.14,10.83v3.16Zm2.86-3,3.69-6.62v6.62h-3.69Zm26.5,3.91a5.718,5.718,0,0,0,.05.85c0.03,0.27.1,0.66,0.19,1.19h0.67a8.092,8.092,0,0,1-.24-1.19c-0.04-.41-0.07-0.82-0.07-1.25v-6.05a3.491,3.491,0,0,0-1.17-2.84,4.666,4.666,0,0,0-3.12-.98,4.611,4.611,0,0,0-3.07.97,2.837,2.837,0,0,0-1.1,2.39l0.02,0.06,0.51,0.02a2.488,2.488,0,0,1,1-2.05,4.092,4.092,0,0,1,2.64-.79,4.007,4.007,0,0,1,2.72.84,2.962,2.962,0,0,1,.97,2.36v1.76h-3.46a6,6,0,0,0-3.59,1.03,3.022,3.022,0,0,0-1.43,2.55,3.269,3.269,0,0,0,.96,2.48,3.643,3.643,0,0,0,2.65.93,6.1,6.1,0,0,0,3-.69,4.731,4.731,0,0,0,1.87-1.78v0.19Zm-7.06.91a2.632,2.632,0,0,1-.82-2,2.532,2.532,0,0,1,1.29-2.14,5.544,5.544,0,0,1,3.17-.86h3.42v2.71a4.65,4.65,0,0,1-1.83,2.27,5.548,5.548,0,0,1-3.04.79A3.1,3.1,0,0,1,1100.69,1395.42Zm21.02-4.93a7.678,7.678,0,0,0-1.21-4.56,3.884,3.884,0,0,0-3.35-1.69,4.593,4.593,0,0,0-2.44.63,4.473,4.473,0,0,0-1.65,1.72l-0.12-2.13h-0.47v3.68a0.143,0.143,0,0,0-.02.07v4.98a0.257,0.257,0,0,1,.02.05v7.96h0.6v-6.49a4.475,4.475,0,0,0,1.65,1.52,5.192,5.192,0,0,0,2.46.56,3.928,3.928,0,0,0,3.33-1.64,7.29,7.29,0,0,0,1.2-4.42v-0.24Zm-0.61.24a7.062,7.062,0,0,1-1,3.98,3.307,3.307,0,0,1-2.91,1.47,4.567,4.567,0,0,1-2.62-.7,3.929,3.929,0,0,1-1.5-1.88v-5.78a4.894,4.894,0,0,1,1.41-2.12,3.9,3.9,0,0,1,2.68-.86,3.273,3.273,0,0,1,2.93,1.57,7.473,7.473,0,0,1,1.01,4.08v0.24Zm13.37-.24a7.678,7.678,0,0,0-1.21-4.56,3.9,3.9,0,0,0-3.35-1.69,4.653,4.653,0,0,0-2.45.63,4.521,4.521,0,0,0-1.64,1.72l-0.12-2.13h-0.47v3.68a0.143,0.143,0,0,0-.02.07v4.98a0.169,0.169,0,0,0,.02.05v7.96h0.6v-6.49a4.326,4.326,0,0,0,1.65,1.52,5.151,5.151,0,0,0,2.45.56,3.9,3.9,0,0,0,3.33-1.64,7.224,7.224,0,0,0,1.21-4.42v-0.24Zm-0.61.24a7.062,7.062,0,0,1-1,3.98,3.313,3.313,0,0,1-2.92,1.47,4.534,4.534,0,0,1-2.61-.7,3.929,3.929,0,0,1-1.5-1.88v-5.78a4.963,4.963,0,0,1,1.4-2.12,3.932,3.932,0,0,1,2.69-.86,3.246,3.246,0,0,1,2.92,1.57,7.387,7.387,0,0,1,1.02,4.08v0.24Zm10.55,4.67a4.15,4.15,0,0,1-2.66.78,5.485,5.485,0,0,1-2.69-.63,2.389,2.389,0,0,1-1.23-2.07h-0.49l-0.03.06a2.633,2.633,0,0,0,1.13,2.3,5.214,5.214,0,0,0,3.31.95,4.994,4.994,0,0,0,3.09-.89,2.763,2.763,0,0,0,1.16-2.3,2.688,2.688,0,0,0-1.05-2.26,7.9,7.9,0,0,0-3.06-1.28,6.958,6.958,0,0,1-2.93-1.18,2.1,2.1,0,0,1-.74-1.62,2.166,2.166,0,0,1,.87-1.69,3.9,3.9,0,0,1,2.57-.73,4.119,4.119,0,0,1,2.71.83,2.54,2.54,0,0,1,1,2.02h0.52l0.02-.07a2.867,2.867,0,0,0-1.1-2.45,4.847,4.847,0,0,0-3.15-.93,4.625,4.625,0,0,0-2.95.87,2.689,2.689,0,0,0-1.09,2.18,2.514,2.514,0,0,0,.96,2.14,8.409,8.409,0,0,0,3.13,1.18,5.988,5.988,0,0,1,2.86,1.23,2.382,2.382,0,0,1,.82,1.75A2.252,2.252,0,0,1,1144.41,1395.4Z" transform="translate(-1048.75 -1378.63)"/>
</svg>
